<svg xmlns="http://www.w3.org/2000/svg" width="143.237" height="146.816" viewBox="0 0 143.237 146.816">
  <path id="SVG" d="M111.985,33.3c-6.211-2.912-14.518-4.581-22.791-4.581H35.21a12.823,12.823,0,0,0-3.16-3.024h39C43.3,19.983,41.461,0,18.142,0h0V24.188H15.118V0c-5.01,0-9.071,5.415-9.071,12.094V24.188C1.664,24.188,0,26.084,0,28.723v7.559c0,2.642,1.667,4.535,6.047,4.535v3.024C1.664,43.841,0,45.737,0,48.376v7.559c0,2.642,1.667,4.535,6.047,4.535V72.565c0,6.679,4.061,12.094,9.071,12.094V60.47h3.024V84.659h0c23.319,0,25.162-19.983,52.911-25.7h-39a12.823,12.823,0,0,0,3.16-3.024H89.194c8.273,0,16.579-1.67,22.791-4.581,5.608-2.629,8.956-6,8.956-9.024S117.593,35.934,111.985,33.3ZM92.217,49.888a1.512,1.512,0,0,1-1.512-1.512V36.282a1.512,1.512,0,0,1,1.512-1.512C98.247,34.771,98.254,49.888,92.217,49.888Z" transform="translate(0 91.275) rotate(-49)" fill="#c91c57"/>
</svg>
