<svg xmlns="http://www.w3.org/2000/svg" width="34" height="33.899" viewBox="0 0 34 33.899">
  <g id="carre" transform="translate(-1214 -644.101)">
    <path id="Ellipse_21" data-name="Ellipse 21" d="M14.5,1A13.5,13.5,0,0,0,4.954,24.046,13.5,13.5,0,1,0,24.046,4.954,13.412,13.412,0,0,0,14.5,1m0-1A14.5,14.5,0,1,1,0,14.5,14.5,14.5,0,0,1,14.5,0Z" transform="translate(1214 649)" fill="#707070"/>
    <rect id="Rectangle_14" data-name="Rectangle 14" width="14" height="14" transform="translate(1238.1 644.101) rotate(45)" fill="#212121"/>
    <path id="Rectangle_14_-_Contour" data-name="Rectangle 14 - Contour" d="M1,1V13H13V1H1M0,0H14V14H0Z" transform="translate(1238.1 644.101) rotate(45)" fill="#707070"/>
  </g>
</svg>
