<svg xmlns="http://www.w3.org/2000/svg" width="220.49" height="475.794" viewBox="0 0 220.49 475.794">
  <g id="design_ilus" transform="translate(-43.106 -1066.5)">
    <path id="Tracé_4" data-name="Tracé 4" d="M417.288,1448.657c-.194-.075-4.823-1.874-12.08-5.245a298.576,298.576,0,0,1-27.787-14.727,193.432,193.432,0,0,1-31.214-22.909,110.6,110.6,0,0,1-13.06-14.188,70.515,70.515,0,0,1-9.27-15.9,47.092,47.092,0,0,1,.774-38.654,29.461,29.461,0,0,1,7.921-10.518A33.027,33.027,0,0,1,344,1320.461a54.9,54.9,0,0,1,13.982-2.245,101.9,101.9,0,0,1,15.971.732c22.259,2.618,48.7,11.178,74.279,19.457,18.7,6.053,36.359,11.77,51.135,14.761,15.8,3.2,26.092,2.754,31.454-1.359,3.518-2.7,5.068-7.151,4.737-13.612-1.364-26.656-18.314-60.431-49.017-97.671-12.2-14.8-24.282-27.34-32.271-35.259-8.664-8.587-14.515-13.737-14.573-13.788l3.3-3.757c.059.052,5.989,5.27,14.742,13.943,8.07,8,20.279,20.667,32.615,35.624,13.893,16.845,25.114,33.1,33.354,48.317a166.329,166.329,0,0,1,11.587,26.185,99.127,99.127,0,0,1,5.259,26.151,26.307,26.307,0,0,1-1.357,10.553,16.158,16.158,0,0,1-5.33,7.281c-6.668,5.116-17.946,5.845-35.49,2.293-15.054-3.047-32.846-8.807-51.683-14.9-25.345-8.2-51.552-16.688-73.323-19.249-11.558-1.359-20.678-.927-27.879,1.32-7.813,2.438-13.14,6.976-16.285,13.871a42.266,42.266,0,0,0-.693,34.693c8.723,21.419,32.818,39.341,51.5,50.6a293.5,293.5,0,0,0,27.311,14.474c7.11,3.3,11.733,5.1,11.779,5.117Z" transform="translate(-277 5.965)" fill="#fe8a06"/>
    <path id="pencil-alt" d="M95.968,27.376l-8.886,8.886a2.315,2.315,0,0,1-3.277,0l-21.4-21.4a2.315,2.315,0,0,1,0-3.277L71.3,2.7a9.272,9.272,0,0,1,13.088,0L95.968,14.288A9.237,9.237,0,0,1,95.968,27.376ZM54.776,19.222,4.159,69.84.073,93.26a4.632,4.632,0,0,0,5.359,5.359l23.42-4.106L79.468,43.9a2.315,2.315,0,0,0,0-3.277l-21.4-21.4a2.338,2.338,0,0,0-3.3,0ZM23.916,65.5a2.687,2.687,0,0,1,0-3.817L53.6,32a2.7,2.7,0,0,1,3.817,3.817L27.733,65.5a2.688,2.688,0,0,1-3.817,0ZM16.958,81.714H26.21v7L13.777,90.889,7.783,84.894,9.961,72.461h7Z" transform="matrix(0.891, -0.454, 0.454, 0.891, 118.84, 1111.303)" fill="#969696"/>
    <path id="laptop-code" d="M48.17,49.421a3.022,3.022,0,0,0,4.274,0l2.136-2.136a3.022,3.022,0,0,0,0-4.274l-6.747-6.745,6.745-6.747a3.022,3.022,0,0,0,0-4.274l-2.136-2.136a3.022,3.022,0,0,0-4.274,0L37.149,34.127a3.022,3.022,0,0,0,0,4.274ZM66.3,47.286l2.136,2.136a3.022,3.022,0,0,0,4.274,0L83.734,38.4a3.022,3.022,0,0,0,0-4.274L72.715,23.11a3.022,3.022,0,0,0-4.274,0L66.3,25.246a3.022,3.022,0,0,0,0,4.274l6.745,6.745L66.3,43.012a3.022,3.022,0,0,0,0,4.274Zm51.557,31.288h-45.8a5.954,5.954,0,0,1-6.184,6.044H54.4a6.414,6.414,0,0,1-6.19-6.044H3.022A3.031,3.031,0,0,0,0,81.6v3.022A12.124,12.124,0,0,0,12.088,96.707H108.8a12.124,12.124,0,0,0,12.088-12.088V81.6A3.031,3.031,0,0,0,117.861,78.574ZM108.8,9.066A9.093,9.093,0,0,0,99.729,0H21.155a9.093,9.093,0,0,0-9.066,9.066V72.53H108.8ZM96.707,60.442H24.177V12.088h72.53Z" transform="translate(124.764 1445.588)" fill="#fe8a06"/>
  </g>
</svg>
