<svg xmlns="http://www.w3.org/2000/svg" xmlns:xlink="http://www.w3.org/1999/xlink" width="260" height="260" viewBox="0 0 260 260">
  <defs>
    <filter id="Rectangle_44" x="0" y="0" width="260" height="260" filterUnits="userSpaceOnUse">
      <feOffset dy="3" input="SourceAlpha"/>
      <feGaussianBlur stdDeviation="12.5" result="blur"/>
      <feFlood flood-opacity="0.322"/>
      <feComposite operator="in" in2="blur"/>
      <feComposite in="SourceGraphic"/>
    </filter>
    <filter id="Ellipse_41" x="28" y="35" width="205" height="206" filterUnits="userSpaceOnUse">
      <feOffset dy="11" input="SourceAlpha"/>
      <feGaussianBlur stdDeviation="13.5" result="blur-2"/>
      <feFlood flood-color="#6471a2" flood-opacity="0.78"/>
      <feComposite operator="in" in2="blur-2"/>
      <feComposite in="SourceGraphic"/>
    </filter>
    <filter id="Ellipse_42">
      <feOffset input="SourceAlpha"/>
      <feGaussianBlur stdDeviation="7.5" result="blur-3"/>
      <feFlood flood-opacity="0.2" result="color"/>
      <feComposite operator="out" in="SourceGraphic" in2="blur-3"/>
      <feComposite operator="in" in="color"/>
      <feComposite operator="in" in2="SourceGraphic"/>
    </filter>
    <filter id="Ellipse_44" x="65.5" y="64.5" width="132" height="133" filterUnits="userSpaceOnUse">
      <feOffset dy="3" input="SourceAlpha"/>
      <feGaussianBlur stdDeviation="11" result="blur-4"/>
      <feFlood flood-opacity="0.6"/>
      <feComposite operator="in" in2="blur-4"/>
      <feComposite in="SourceGraphic"/>
    </filter>
    <filter id="Ellipse_45">
      <feOffset dy="3" input="SourceAlpha"/>
      <feGaussianBlur stdDeviation="3" result="blur-5"/>
      <feFlood flood-opacity="0.161" result="color-2"/>
      <feComposite operator="out" in="SourceGraphic" in2="blur-5"/>
      <feComposite operator="in" in="color-2"/>
      <feComposite operator="in" in2="SourceGraphic"/>
    </filter>
  </defs>
  <g id="CAMERA_MOREL" data-name="CAMERA MOREL" transform="translate(-5442.5 -117.5)">
    <g transform="matrix(1, 0, 0, 1, 5442.5, 117.5)" filter="url(#Rectangle_44)">
      <rect id="Rectangle_44-2" data-name="Rectangle 44" width="185" height="185" rx="36" transform="translate(37.5 34.5)" fill="#fff"/>
    </g>
    <path id="Rectangle_45" data-name="Rectangle 45" d="M0,0H0A8,8,0,0,1,8,8V80a8,8,0,0,1-8,8H0a0,0,0,0,1,0,0V0A0,0,0,0,1,0,0Z" transform="translate(5480 201)" fill="#b12030"/>
    <g transform="matrix(1, 0, 0, 1, 5442.5, 117.5)" filter="url(#Ellipse_41)">
      <ellipse id="Ellipse_41-2" data-name="Ellipse 41" cx="62" cy="62.5" rx="62" ry="62.5" transform="translate(68.5 64.5)" fill="#fff"/>
    </g>
    <g data-type="innerShadowGroup">
      <circle id="Ellipse_42-2" data-name="Ellipse 42" cx="48.5" cy="48.5" r="48.5" transform="translate(5525 196)" fill="#fff"/>
      <g transform="matrix(1, 0, 0, 1, 5442.5, 117.5)" filter="url(#Ellipse_42)">
        <circle id="Ellipse_42-3" data-name="Ellipse 42" cx="48.5" cy="48.5" r="48.5" transform="translate(82.5 78.5)" fill="#fff"/>
      </g>
    </g>
    <ellipse id="Ellipse_43" data-name="Ellipse 43" cx="43.5" cy="44" rx="43.5" ry="44" transform="translate(5530 201)" fill="#353a52"/>
    <g transform="matrix(1, 0, 0, 1, 5442.5, 117.5)" filter="url(#Ellipse_44)">
      <ellipse id="Ellipse_44-2" data-name="Ellipse 44" cx="33" cy="33.5" rx="33" ry="33.5" transform="translate(98.5 94.5)" fill="#353a52"/>
    </g>
    <g data-type="innerShadowGroup">
      <ellipse id="Ellipse_45-2" data-name="Ellipse 45" cx="28" cy="28.5" rx="28" ry="28.5" transform="translate(5546 217)" fill="#32364d"/>
      <g transform="matrix(1, 0, 0, 1, 5442.5, 117.5)" filter="url(#Ellipse_45)">
        <ellipse id="Ellipse_45-3" data-name="Ellipse 45" cx="28" cy="28.5" rx="28" ry="28.5" transform="translate(103.5 99.5)" fill="#fff"/>
      </g>
    </g>
    <circle id="Ellipse_46" data-name="Ellipse 46" cx="19.5" cy="19.5" r="19.5" transform="translate(5555 226)" fill="#212534"/>
    <ellipse id="Ellipse_47" data-name="Ellipse 47" cx="15" cy="15.5" rx="15" ry="15.5" transform="translate(5559 230)" fill="#39ce5d"/>
    <ellipse id="Ellipse_48" data-name="Ellipse 48" cx="11" cy="11.5" rx="11" ry="11.5" transform="translate(5563 234)" fill="#272727"/>
    <circle id="Ellipse_49" data-name="Ellipse 49" cx="6" cy="6" r="6" transform="translate(5568 240)"/>
    <circle id="Ellipse_50" data-name="Ellipse 50" cx="40.5" cy="40.5" r="40.5" transform="translate(5511 172)" fill="rgba(255,255,255,0.1)"/>
  </g>
</svg>
